<?xml version="1.0" standalone="no"?>
<!DOCTYPE svg PUBLIC "-//W3C//DTD SVG 20010904//EN"
 "http://www.w3.org/TR/2001/REC-SVG-20010904/DTD/svg10.dtd">
<svg version="1.0" xmlns="http://www.w3.org/2000/svg"
 width="1280.000000pt" height="819.000000pt" viewBox="0 0 600 500"
 preserveAspectRatio="xMidYMid meet">

<g transform="translate(-340.000000,800.000000) scale(0.100000,-0.100000)"
fill="#ffffff" stroke="none">
<path d="M7510 7583 c-14 -2 -308 -54 -654 -114 -346 -59 -631 -111 -634 -113
-4 -5 594 -3465 600 -3471 2 -2 165 25 363 59 277 48 361 66 363 77 1 9 -45
289 -103 624 -58 334 -104 610 -102 612 7 6 246 47 251 42 2 -2 52 -283 111
-624 59 -341 108 -621 109 -622 4 -5 362 60 369 67 4 4 -19 161 -52 350 -33
189 -59 345 -57 347 1 1 114 -137 251 -308 137 -171 254 -313 262 -316 17 -7
463 69 463 79 0 7 -90 115 -457 550 l-73 86 43 25 c60 35 140 124 175 193 42
84 56 154 54 279 -1 197 -48 352 -146 481 -40 55 -51 75 -44 88 5 9 21 60 35
114 24 88 26 115 27 297 1 217 -14 321 -71 479 -102 285 -304 523 -538 636
-133 64 -209 82 -375 85 -80 2 -156 1 -170 -2z m325 -178 c304 -79 536 -361
621 -755 26 -120 26 -393 1 -502 -10 -43 -21 -80 -25 -82 -4 -2 -32 2 -62 10
-70 18 -193 18 -300 -1 -47 -8 -85 -15 -86 -15 0 0 16 33 37 74 114 228 56
578 -127 764 -84 84 -151 115 -264 120 -71 3 -142 -6 -420 -53 -184 -32 -338
-61 -342 -64 -7 -6 178 -1090 187 -1100 3 -2 102 12 221 33 119 21 217 36 218
34 2 -1 6 -17 9 -35 8 -39 26 -33 -220 -74 -197 -33 -220 -40 -210 -57 4 -6
89 5 222 28 119 20 217 34 219 31 9 -16 16 -81 9 -81 -4 0 -104 -16 -220 -37
-152 -26 -213 -40 -213 -50 0 -18 7 -17 237 23 112 20 206 34 208 32 2 -1 5
-21 7 -42 l3 -40 -215 -38 c-118 -20 -216 -38 -217 -38 -4 0 -4 -30 0 -30 1 0
92 16 202 35 248 43 242 43 247 5 5 -36 27 -29 -222 -70 -102 -17 -192 -34
-201 -38 -14 -6 -4 -77 92 -627 59 -341 106 -621 104 -623 -6 -7 -347 -63
-352 -58 -5 5 -552 3139 -549 3142 0 1 251 45 556 98 305 52 566 97 580 100
45 8 204 -3 265 -19z m-128 -589 c171 -88 248 -398 148 -596 -22 -44 -81 -107
-119 -127 -24 -12 -516 -106 -523 -99 -7 6 -133 759 -128 764 3 3 116 24 251
47 258 44 306 45 371 11z m646 -837 c46 -15 46 -40 0 -50 -18 -3 -30 -2 -27 2
7 12 37 16 -348 -51 -189 -33 -351 -60 -360 -60 -14 0 -18 8 -18 35 0 32 3 35
38 40 20 4 78 16 127 28 304 70 490 87 588 56z m5 -94 c-6 -14 -15 -25 -19
-25 -20 0 -523 -90 -527 -95 -15 -14 23 -10 253 31 138 24 254 44 258 44 5 0
-1 -13 -13 -30 -18 -25 -28 -30 -61 -30 -24 0 -38 4 -34 10 8 14 23 16 -295
-39 -157 -28 -288 -47 -292 -43 -3 4 -8 23 -10 42 l-3 35 65 11 c36 7 88 15
115 19 28 3 158 26 290 49 298 54 288 53 273 21z m232 -100 c62 -90 110 -262
110 -394 0 -76 -21 -165 -53 -229 -31 -63 -122 -143 -201 -178 -40 -17 -66
-34 -66 -44 0 -8 112 -148 248 -310 188 -223 245 -296 233 -301 -40 -15 -232
-42 -240 -33 -7 8 -482 605 -486 612 -2 2 -168 -28 -172 -32 -1 -1 24 -155 57
-341 33 -186 58 -340 56 -342 -5 -5 -178 -35 -181 -31 -10 11 -201 1154 -193
1159 11 7 169 32 173 27 2 -2 13 -57 25 -123 12 -66 23 -121 25 -123 6 -6 419
69 450 82 44 19 103 92 120 150 29 96 13 233 -37 314 -21 34 -21 34 -1 60 15
20 34 30 72 37 29 5 49 13 45 18 -4 4 -23 4 -41 1 -38 -7 -42 3 -13 34 12 12
18 22 15 22 -3 0 -3 5 0 10 9 15 21 5 55 -45z m-766 -116 c11 -55 11 -55 -84
-69 -50 -7 -92 -11 -94 -9 -2 2 -6 21 -9 41 l-5 36 76 15 c109 21 109 21 116
-14z m321 -25 c-58 -42 -162 -94 -187 -94 -13 0 -18 8 -18 30 0 17 5 30 11 30
5 0 34 11 64 25 50 24 113 41 160 44 14 1 4 -10 -30 -35z m254 -103 c14 -42
14 -134 1 -183 -6 -20 -24 -50 -39 -66 -29 -29 -79 -41 -317 -78 l-42 -6 -11
64 c-18 105 -20 101 62 132 88 35 184 91 257 151 60 49 68 48 89 -14z m-556
12 c3 -16 0 -31 -5 -34 -14 -9 -167 -33 -173 -28 -2 2 -5 18 -7 34 -3 29 -2
30 62 41 107 19 117 18 123 -13z"/>
<path d="M7270 7310 c-151 -27 -317 -56 -367 -65 -66 -12 -93 -21 -93 -31 0
-8 3 -14 8 -14 9 0 871 149 892 154 8 2 -25 4 -75 4 -64 0 -169 -14 -365 -48z"/>
<path d="M7360 7206 c-448 -78 -525 -94 -528 -109 -3 -14 1 -17 20 -12 13 3
259 46 548 95 289 50 533 93 543 96 27 8 9 24 -26 23 -18 -1 -268 -42 -557
-93z"/>
<path d="M7465 7104 c-324 -57 -596 -104 -602 -104 -14 0 -18 -30 -5 -30 4 -1
287 48 629 107 504 86 620 109 611 120 -6 7 -18 13 -27 12 -9 0 -281 -47 -606
-105z"/>
<path d="M7988 7077 c-98 -18 -178 -35 -178 -39 0 -19 53 -16 211 12 96 16
178 30 182 30 5 0 4 7 -3 15 -15 18 4 20 -212 -18z"/>
<path d="M8085 6974 c-71 -13 -136 -25 -142 -26 -8 -2 -9 -8 -4 -17 7 -11 35
-9 170 14 114 20 161 32 161 42 0 18 -29 16 -185 -13z"/>
<path d="M8147 6865 c-71 -13 -131 -25 -133 -28 -2 -2 1 -9 8 -14 19 -15 308
36 308 54 0 18 -30 16 -183 -12z"/>
<path d="M8202 6755 c-126 -23 -142 -29 -126 -45 5 -5 36 -4 79 4 39 8 103 19
143 26 50 8 72 16 72 26 0 18 -18 17 -168 -11z"/>
<path d="M8275 6649 c-55 -10 -115 -21 -132 -24 -20 -4 -33 -12 -33 -20 0 -18
-10 -19 134 5 148 25 156 28 156 46 0 17 3 17 -125 -7z"/>
<path d="M8255 6526 c-96 -17 -121 -25 -123 -39 -3 -14 1 -17 20 -12 32 7 250
45 260 45 4 0 8 7 8 15 0 19 -15 18 -165 -9z"/>
<path d="M8280 6411 c-123 -22 -145 -29 -148 -45 -3 -13 0 -17 10 -14 7 3 75
16 151 28 118 20 137 26 137 42 0 10 -1 17 -2 17 -2 -1 -68 -13 -148 -28z"/>
<path d="M8248 6286 c-105 -19 -151 -36 -137 -51 11 -10 308 48 313 62 7 18
-31 15 -176 -11z"/>
<path d="M8220 6162 c-112 -21 -145 -31 -148 -43 -3 -15 16 -13 158 12 164 29
180 33 180 50 0 13 -27 10 -190 -19z"/>
<path d="M7960 5928 c-91 -16 -167 -31 -169 -34 -14 -14 26 -10 205 21 238 42
243 43 179 43 -27 0 -124 -13 -215 -30z"/>
<path d="M8528 5698 c-32 -6 -58 -14 -58 -19 0 -11 0 -11 77 2 35 6 63 15 63
20 0 10 -4 10 -82 -3z"/>
<path d="M8558 5637 c-32 -6 -58 -14 -58 -19 0 -11 19 -10 80 3 27 6 50 15 50
20 0 5 -3 8 -7 8 -5 -1 -34 -6 -65 -12z"/>
<path d="M8565 5573 c-16 -3 -34 -9 -40 -15 -13 -13 106 0 120 13 9 9 -22 10
-80 2z"/>
<path d="M8575 5506 c-27 -6 -45 -14 -40 -18 14 -8 138 15 129 25 -9 9 -27 8
-89 -7z"/>
<path d="M8603 5447 c-74 -11 -88 -33 -15 -23 63 9 82 15 82 27 0 5 -1 8 -2 8
-2 -1 -31 -6 -65 -12z"/>
<path d="M8583 5377 c-29 -5 -53 -14 -53 -20 0 -5 13 -7 33 -3 17 4 49 9 70
13 20 3 37 9 37 14 0 11 -17 10 -87 -4z"/>
<path d="M8565 5308 c-27 -5 -54 -14 -60 -20 -7 -7 -1 -9 21 -5 17 3 54 9 83
13 55 7 81 25 34 23 -15 -1 -50 -6 -78 -11z"/>
<path d="M8533 5236 c-34 -6 -67 -16 -73 -22 -8 -8 21 -6 84 5 95 17 136 32
80 30 -16 -1 -57 -7 -91 -13z"/>
<path d="M8250 5122 c-173 -30 -317 -57 -319 -59 -2 -2 -2 -6 2 -9 7 -8 669
106 682 117 17 16 -45 7 -365 -49z"/>
<path d="M8247 5055 c-276 -49 -348 -65 -286 -65 47 0 592 99 603 110 14 14
22 15 -317 -45z"/>
<path d="M8180 4978 c-124 -22 -227 -42 -229 -44 -2 -2 -2 -6 1 -9 8 -8 453
71 475 84 17 10 17 10 -2 10 -11 -1 -121 -19 -245 -41z"/>
<path d="M8248 4923 c-43 -8 -78 -19 -78 -25 0 -6 10 -8 23 -5 12 3 52 11 90
17 37 7 67 16 67 21 0 11 -6 11 -102 -8z"/>
<path d="M8320 4869 c-25 -4 -60 -11 -78 -14 -18 -3 -30 -10 -27 -15 3 -5 11
-7 18 -5 7 2 45 9 85 15 39 7 72 16 72 21 0 10 -8 10 -70 -2z"/>
<path d="M8333 4806 c-57 -10 -94 -26 -62 -26 38 0 169 24 169 32 0 10 -28 9
-107 -6z"/>
<path d="M8368 4747 c-32 -6 -58 -14 -58 -19 0 -4 6 -8 13 -8 23 0 158 28 164
34 9 8 -52 5 -119 -7z"/>
<path d="M8438 4692 c-49 -8 -88 -19 -88 -23 0 -5 3 -9 8 -9 16 0 175 30 179
34 12 12 -21 11 -99 -2z"/>
<path d="M8545 4645 c-5 -2 -43 -9 -83 -15 -41 -7 -70 -16 -65 -20 11 -10 194
20 187 31 -5 9 -20 10 -39 4z"/>
<path d="M8550 4580 c-19 -4 -52 -11 -73 -14 -21 -4 -35 -11 -33 -15 6 -10
186 20 186 31 0 10 -32 9 -80 -2z"/>
<path d="M8563 4516 c-60 -11 -94 -26 -59 -26 36 0 161 23 171 31 12 12 -34
10 -112 -5z"/>
<path d="M8628 4462 c-49 -8 -88 -19 -88 -23 0 -5 3 -9 8 -9 16 0 175 30 179
34 12 12 -21 11 -99 -2z"/>
<path d="M8660 4401 c-47 -9 -80 -20 -74 -23 15 -10 195 23 188 34 -6 10 -8
10 -114 -11z"/>
<path d="M8740 4349 c-25 -4 -60 -11 -78 -14 -18 -3 -30 -10 -28 -14 7 -10
186 19 186 30 0 10 -18 10 -80 -2z"/>
<path d="M4360 7118 c-1109 -196 -1478 -265 -1516 -283 -104 -46 -181 -157
-191 -273 -7 -81 507 -3001 542 -3078 29 -64 88 -125 156 -159 104 -53 37 -62
1664 225 1201 212 1490 266 1532 286 101 49 176 154 189 264 5 45 -39 310
-250 1510 -141 800 -263 1483 -272 1517 -39 151 -177 255 -333 252 -31 -1
-715 -118 -1521 -261z m1601 4 l31 -28 259 -1469 c159 -896 258 -1483 255
-1504 -7 -47 -39 -77 -95 -90 -98 -23 -2884 -511 -2916 -511 -36 0 -90 37 -99
68 -13 40 -516 2918 -516 2948 0 23 9 44 29 66 l28 32 1449 257 c797 141 1470
257 1496 258 39 1 53 -4 79 -27z"/>
<path d="M5463 6755 c-28 -19 -46 -75 -38 -117 3 -18 28 -161 55 -318 28 -156
50 -304 50 -329 0 -108 -50 -179 -146 -207 -85 -24 -162 -22 -213 7 -81 45
-96 86 -161 462 -28 160 -56 307 -61 324 -24 76 -124 100 -180 44 -24 -25 -29
-37 -29 -80 0 -49 88 -569 110 -652 33 -123 104 -220 195 -267 44 -23 65 -27
166 -30 196 -7 331 33 430 125 79 74 102 127 107 248 3 88 -3 138 -53 419 -31
176 -60 327 -66 337 -25 47 -120 66 -166 34z"/>
<path d="M3745 6458 c-38 -20 -55 -51 -55 -100 0 -49 143 -877 161 -935 21
-65 94 -92 159 -58 38 19 50 43 50 96 0 62 -148 898 -167 942 -25 58 -95 84
-148 55z"/>
<path d="M5415 5320 c-143 -25 -271 -50 -285 -54 -38 -12 -69 -45 -75 -80 -7
-39 150 -937 171 -977 33 -65 120 -74 176 -19 37 37 36 63 -3 291 -17 99 -29
183 -26 186 6 5 367 73 390 73 4 0 19 11 32 25 29 28 32 70 9 103 -31 44 -53
45 -267 7 -110 -20 -201 -34 -202 -33 -5 8 -47 270 -43 273 2 2 107 22 233 45
264 47 278 53 283 122 3 40 -1 49 -24 67 -37 29 -64 27 -369 -29z"/>
<path d="M3980 5063 c-23 -9 -60 -45 -76 -74 -17 -34 -204 -951 -204 -1002 0
-55 43 -97 100 -97 81 0 96 23 125 185 10 55 23 105 29 111 6 6 97 26 201 44
105 17 199 34 210 36 16 4 27 -8 54 -53 103 -174 133 -202 204 -182 78 21 98
96 49 184 -85 152 -490 786 -523 818 -36 34 -42 37 -96 36 -32 0 -65 -3 -73
-6z m205 -446 c60 -103 106 -189 104 -191 -7 -6 -303 -56 -307 -52 -2 2 14
106 35 230 29 170 41 222 49 213 7 -7 60 -96 119 -200z"/>
<path d="M9330 6230 c-202 -35 -370 -187 -454 -411 -100 -266 -71 -671 69
-967 156 -328 391 -511 660 -512 271 0 489 194 577 515 19 69 22 106 22 275 0
164 -3 210 -21 291 -121 537 -476 874 -853 809z m231 -100 c225 -70 426 -311
514 -615 46 -158 58 -255 52 -415 -4 -118 -10 -162 -32 -235 -85 -288 -285
-451 -530 -432 -282 21 -529 293 -630 692 -119 469 34 904 353 1006 78 25 192
24 273 -1z"/>
<path d="M9335 6110 c-42 -9 -97 -29 -80 -29 6 0 44 8 85 18 75 19 71 26 -5
11z"/>
<path d="M9340 6056 c-191 -43 -226 -53 -218 -61 5 -6 447 90 455 99 14 14
-62 1 -237 -38z"/>
<path d="M9348 5996 c-153 -34 -283 -67 -290 -74 -11 -11 -10 -12 2 -8 8 3
143 33 300 67 157 34 289 65 295 70 16 16 -23 9 -307 -55z"/>
<path d="M9372 5939 c-329 -72 -372 -83 -361 -92 4 -4 223 43 359 77 36 9 126
28 200 42 148 30 178 38 164 46 -5 3 -168 -30 -362 -73z"/>
<path d="M9690 5949 c-100 -23 -115 -28 -107 -35 9 -9 217 38 211 48 -6 10 0
11 -104 -13z"/>
<path d="M9753 5901 c-68 -15 -104 -31 -71 -31 33 0 158 33 158 41 0 10 5 11
-87 -10z"/>
<path d="M9359 5896 c-189 -51 -302 -238 -302 -501 0 -318 150 -607 369 -707
40 -19 66 -23 144 -23 88 0 101 3 162 33 114 56 189 164 224 320 22 99 15 293
-15 407 -26 100 -97 244 -152 310 -117 141 -279 202 -430 161z m232 -104 c170
-83 299 -346 299 -609 0 -194 -71 -338 -198 -400 -73 -36 -171 -38 -245 -5
-57 25 -145 107 -188 173 -102 159 -149 428 -105 598 32 125 107 221 199 255
62 23 180 17 238 -12z"/>
<path d="M9790 5848 c-62 -13 -79 -32 -20 -23 24 4 62 13 85 20 37 12 38 13
10 13 -16 0 -50 -5 -75 -10z"/>
<path d="M9088 5816 c-88 -19 -133 -36 -97 -36 32 0 192 39 202 49 14 14 13
14 -105 -13z"/>
<path d="M9845 5799 c-54 -12 -69 -18 -62 -25 7 -8 126 17 133 27 6 11 -18 10
-71 -2z"/>
<path d="M9035 5744 c-76 -18 -89 -23 -82 -30 7 -7 159 26 172 37 13 12 -18
10 -90 -7z"/>
<path d="M9882 5745 c-93 -23 -78 -35 18 -14 27 6 50 15 50 20 0 11 1 11 -68
-6z"/>
<path d="M9903 5688 c-24 -5 -43 -14 -43 -19 0 -6 8 -8 18 -5 9 3 34 8 55 12
20 3 40 10 43 15 6 11 -17 10 -73 -3z"/>
<path d="M9025 5680 c-16 -4 -42 -11 -57 -14 -16 -4 -28 -10 -28 -15 0 -10
130 17 145 30 11 11 -18 10 -60 -1z"/>
<path d="M9955 5639 c-54 -13 -69 -18 -62 -25 8 -9 117 16 117 27 0 10 -1 10
-55 -2z"/>
<path d="M8980 5609 c-54 -15 -63 -19 -57 -25 7 -7 119 16 132 28 12 11 -30 9
-75 -3z"/>
<path d="M9950 5576 c-25 -7 -40 -15 -35 -18 13 -8 115 14 115 24 0 11 -25 9
-80 -6z"/>
<path d="M8985 5549 c-54 -13 -69 -18 -62 -25 8 -8 115 15 122 27 7 11 -6 10
-60 -2z"/>
<path d="M9973 5519 c-18 -5 -33 -12 -33 -15 0 -9 94 6 105 17 12 12 -29 10
-72 -2z"/>
<path d="M8977 5485 c-62 -13 -84 -25 -48 -25 35 0 111 21 111 31 0 5 -1 9 -2
8 -2 -1 -29 -7 -61 -14z"/>
<path d="M10008 5466 c-49 -12 -73 -26 -44 -26 31 0 106 22 106 31 0 10 0 10
-62 -5z"/>
<path d="M8985 5425 c-5 -2 -22 -6 -37 -9 -16 -4 -28 -10 -28 -15 0 -9 94 10
106 22 7 7 -21 9 -41 2z"/>
<path d="M10018 5408 c-27 -6 -48 -14 -48 -19 0 -11 -1 -11 60 2 27 6 50 15
50 20 0 10 2 10 -62 -3z"/>
<path d="M8958 5358 c-58 -15 -45 -26 17 -15 30 6 55 14 55 19 0 10 -24 9 -72
-4z"/>
<path d="M10023 5347 c-24 -5 -43 -14 -43 -20 0 -5 11 -6 26 -3 15 4 39 10 55
13 16 3 29 9 29 14 0 11 -11 10 -67 -4z"/>
<path d="M8962 5298 c-23 -5 -40 -13 -37 -17 6 -10 95 7 110 20 11 11 -15 10
-73 -3z"/>
<path d="M10033 5287 c-24 -5 -43 -14 -43 -19 0 -5 8 -7 18 -4 9 3 34 8 55 12
20 3 37 10 37 15 0 11 -11 10 -67 -4z"/>
<path d="M8968 5238 c-21 -6 -38 -15 -38 -20 0 -6 7 -7 16 -4 9 3 33 9 55 12
43 7 64 25 27 23 -13 -1 -40 -6 -60 -11z"/>
<path d="M10038 5228 c-27 -6 -48 -15 -48 -20 0 -6 10 -8 23 -5 12 3 39 9 60
12 20 4 37 11 37 16 0 10 -8 10 -72 -3z"/>
<path d="M8982 5180 c-52 -12 -52 -23 1 -17 56 8 99 27 57 26 -14 -1 -40 -5
-58 -9z"/>
<path d="M9018 5126 c-50 -12 -73 -26 -42 -26 32 0 94 20 94 30 0 6 -1 9 -2 9
-2 -1 -24 -6 -50 -13z"/>
<path d="M9028 5068 c-27 -6 -48 -14 -48 -19 0 -11 -1 -11 60 2 27 6 50 15 50
20 0 10 2 10 -62 -3z"/>
<path d="M9030 5006 c-25 -7 -40 -15 -35 -18 13 -8 115 14 115 24 0 11 -25 9
-80 -6z"/>
</g>
</svg>
